General                          : ChattChitto RG - Movies

Complete name                    : The Book Of Eli 2010 BRRip.mp4
Format                           : MPEG-4
Format profile                   : Base Media
Codec ID                         : isom
File size                        : 2.17 GiB
Duration                         : 1h 57mn
Overall bit rate                 : 2 647 Kbps
Encoded date                     : UTC 2010-05-18 18:49:51

Video
==========
ID                               : 1
Format                           : AVC
Format/Info                      : Advanced Video Codec
Format profile                   : High@L4.0
Format settings, CABAC           : Yes
Format settings, ReFrames        : 4 frames
Codec ID                         : avc1
Codec ID/Info                    : Advanced Video Coding
Duration                         : 1h 57mn
Bit rate mode                    : Variable
Bit rate                         : 2 300 Kbps
Maximum bit rate                 : 19.4 Mbps
Width                            : 1 280 pixels
Height                           : 528 pixels
Display aspect ratio             : 2.40:1
Frame rate mode                  : Constant
Frame rate                       : 23.976 fps
Resolution                       : 8 bits
Colorimetry                      : 4:2:0
Scan type                        : Progressive
Bits/(Pixel*Frame)               : 0.142
Stream size                      : 1.89 GiB (87%)
Writing library                  : x264 core 84 r1400M 20fa784
Encoded date                     : UTC 2010-05-18 18:45:25

Audio
==========
ID                               : 2
Format                           : AAC
Format/Info                      : Advanced Audio Codec
Format version                   : Version 4
Format profile                   : LC
Format settings, SBR             : No
Codec ID                         : 40
Duration                         : 1h 57mn
Bit rate mode                    : Variable
Bit rate                         : 344 Kbps
Maximum bit rate                 : 461 Kbps
Channel(s)                       : 6 channels
Channel positions                : Front: L C R, Side: L R, LFE
Sampling rate                    : 48.0 KHz
Stream size                      : 289 MiB (13%)
Encoded date                     : UTC 2010-05-18 18:51:01

Subtitles                        : English | French | Romanian | Spanish



----------------------------------------------------
IMDB Link: http://www.imdb.com/title/tt1037705/
----------------------------------------------------



Screen-Shots Comparison:
========================= 
http://comparescreenshots.slicx.com/comparison/57460



Screen Shots:
============== 
http://img208.imageshack.us/img208/9011/90407464.jpg  
http://img594.imageshack.us/img594/2015/27533980.jpg 
http://img42.imageshack.us/img42/3773/68684022.jpg 
http://img257.imageshack.us/img257/9316/37312391.jpg 
http://img265.imageshack.us/img265/5695/50350340.jpg



Plot:
======
A lone hero must fight his way across the wasteland of a post-apocalyptic America to protect a sacred book that holds the key to saving the future of humanity.




Release Info:
==============
original name .... : The Book Of Eli 2010 BRRip.mp4
ripper.............: WiKi
encoder............: Recalled2Life (R2L)
video codec........: H264/.MP4
video bitrate......: 2300 Kbps
audio codec........: AAC-LC
aspect ratio.......: 2.40:1
resolution.........: 1280 x 528
genre..............: Action | Adventure | Drama | Thriller | Western
runtime............: 1h 57mn
language...........: English
rating.............: R
subtitles..........: English | French | Romanian | Spanish
sample.............: Yes [16.3 MB]
2ch Audio..........: 2ch Audio for XBox Viewers  
Compatibility .....: XBox 360 | PS3 | WD Live     



Source:
========
The Book of Eli 2010 1080p BluRay x264 DTS-WiKi [7.95 GB]


Notes:
=======
ChattChitto RG Encourages Burning this Film with ConvertXtoDVD.
XBox 360 | PS3 | WD Live - Compatible
Enhanced and Filtered for your viewing pleasure ;)